<?xml version="1.0" encoding="UTF-8" standalone="no"?>
<!-- Created with Inkscape (http://www.inkscape.org/) -->

<svg
   width="100mm"
   height="100mm"
   viewBox="0 0 100 100"
   version="1.1"
   id="svg1"
   xml:space="preserve"
   xmlns="http://www.w3.org/2000/svg"
   xmlns:svg="http://www.w3.org/2000/svg"><defs
     id="defs1" /><g
     id="layer1"><path
       style="fill:#000000;stroke-width:0.690524"
       d="m 50.718826,92.241537 -0.242089,-0.593781 -0.42404,-1.827004 -0.42404,-1.827016 -0.03658,-0.05733 -0.03658,-0.05733 -5.180079,1.669701 -5.18008,1.669689 -0.913496,0.286959 -0.913508,0.286948 -0.22838,0.08432 -0.228368,0.08432 V 91.03695 90.112887 l 0.194268,-0.905879 0.194281,-0.90588 5.490764,-4.070984 5.490763,-4.070972 -0.104589,-0.832883 -0.104588,-0.832896 -0.27481,-1.827016 -0.274809,-1.827004 -0.189243,-2.557817 -0.189243,-2.557818 -6.84e-4,-8.147281 -6.96e-4,-8.147281 -3.041108,-0.114304 -3.041097,-0.114304 -0.320063,0.01499 0.0048,0.669716 -0.0024,0.491639 -0.1799,0.274053 -0.179912,0.274054 -0.1799,-0.274054 -0.179899,-0.274053 c 9.95e-4,-0.385036 0.03586,-1.280456 0.03586,-1.280456 l -1.367317,0.09295 h -1.104095 l -1.769012,0.656186 -1.769001,0.656174 -0.167594,0.94245 -0.121152,0.826323 -0.190443,0.378079 -0.221411,-0.326432 -0.182695,-0.713027 -0.182706,-0.713014 -3.242946,1.181529 -3.242946,1.181552 -0.116103,1.238753 c -0.138964,0.517246 -0.08372,0.316944 -0.288974,0.811906 l -0.149819,-0.365401 -0.149806,-0.365401 -0.100631,-0.47378 -0.10063,-0.473767 -1.419648,0.453101 -1.419648,0.45309 -4.202127,1.45545 -4.202116,1.455451 -0.629667,-0.212104 0.190167,-1.516597 0.622686,-1.301205 0.622675,-1.301206 0.601925,-0.397413 0.601925,-0.397414 10.413953,-6.243034 10.413965,-6.243035 0.197243,-0.161692 0.197244,-0.161705 -0.07856,-0.535046 -0.07856,-0.535057 -0.330246,-0.08636 -0.330246,-0.08636 -0.1304,-1.217714 -0.0752,-1.364679 0.02279,-2.04038 0.170161,-1.972276 0.223618,-0.531208 0.438673,-0.285424 1.621557,-0.174898 1.805906,0.04018 0.238143,0.160157 0.238156,0.160146 0.244236,1.050649 0.04822,1.3446 0.04078,1.645354 -0.155216,1.939305 0.05002,0.05002 0.04989,0.05002 2.272034,-1.375893 c 0.97613,-0.579831 1.515133,-0.583706 2.320994,-1.381254 l 0.547939,-1.016082 0.317832,-0.93938 0.08408,-9.896455 0.0072,-8.861002 0.19578,-2.090179 0.195792,-2.090191 0.51823,-2.051942 0.518217,-2.0519416 0.578069,-1.211238 0.578069,-1.211238 0.553228,-0.630099 0.553229,-0.6300875 h 0.502506 0.502493 l 0.497156,0.4607421 0.497156,0.4607544 0.691581,1.503283 0.691581,1.503295 0.306558,1.1331436 0.306546,1.133156 0.297358,1.516009 0.29737,1.516021 0.119461,10.779354 0.0812,10.012366 0.230646,1.128958 0.614147,1.435744 2.181443,1.353884 2.449882,1.507277 h 0.112865 0.112864 l -0.165746,-1.32457 -0.06777,-1.373579 0.0048,-1.368493 0.07112,-1.294777 0.144841,-0.620288 0.47619,-0.35728 1.829835,-0.101831 c 0.801459,0.08108 1.381482,0.106988 1.9738,0.259037 l 0.453378,0.381258 0.112025,0.863048 0.06897,1.32992 0.02183,1.689252 c 0.006,0.433203 -0.006,1.112238 -0.03574,1.519151 -0.03526,0.488844 -0.09535,0.707365 -0.180224,1.267034 l -0.115383,0.411087 h -0.344088 -0.344087 v 0.626992 0.627005 l 11.140389,6.689372 11.140401,6.689383 0.635185,1.338544 0.635196,1.338543 0.19133,1.525868 -0.510194,0.106148 -0.808703,-0.15825 -3.824816,-1.352949 c -3.696624,-1.25654 -6.451709,-2.274804 -6.650559,-2.201052 l -0.170065,-0.05217 -0.0415,0.418355 -0.04918,0.573211 -0.1799,0.274041 -0.179912,0.274066 -0.1799,-0.274066 -0.179899,-0.274041 -0.0024,-0.659161 -0.0036,-0.659161 -3.06024,-1.123968 c -1.15688,-0.423513 -2.315644,-0.842 -3.46281,-1.29016 -0.04282,0.231043 -0.03874,0.460934 -0.06969,0.69464 l -0.158659,0.37496 -0.243828,0.452382 -0.282114,-0.478422 -0.196943,-0.416483 -0.0084,-0.47372 -0.0084,-0.473708 -1.87269,-0.713842 -1.872677,-0.713842 -1.026337,0.05409 -1.026349,0.05409 -0.161213,0.753363 -0.145728,0.660468 -0.226233,0.356189 -0.218473,-0.33286 -0.117303,-0.531112 -0.12505,-0.740145 h -3.062303 -3.062302 l -0.118022,1.78133 -0.117902,1.781343 -0.0036,7.399387 -0.0036,7.399388 -0.277232,2.375111 -0.277232,2.375123 -0.273753,1.716251 -0.273766,1.71625 0.277484,0.306618 0.277484,0.306618 5.143605,3.823557 5.143594,3.823569 0.223426,0.548107 0.223415,0.548095 0.118862,1.220138 0.118861,1.220137 -0.157506,0.09739 -0.157495,0.09739 -6.178782,-2.00369 -6.178794,-2.003701 -0.03454,0.04678 -0.03454,0.04678 -0.479573,1.939893 -0.479585,1.939904 -0.182826,0.480893 -0.182839,0.48088 H 51.43033 50.959741 Z"
       id="path1" /></g></svg>
