<?xml version="1.0" encoding="UTF-8" standalone="no"?>
<!-- Created with Inkscape (http://www.inkscape.org/) -->

<svg
   width="100mm"
   height="100mm"
   viewBox="0 0 100 100"
   version="1.1"
   id="svg1"
   xml:space="preserve"
   xmlns="http://www.w3.org/2000/svg"
   xmlns:svg="http://www.w3.org/2000/svg"><defs
     id="defs1" /><g
     id="layer1"><path
       style="fill:#000000;stroke-width:0.294046"
       d="m 37.908434,91.348247 v -1.237052 l 0.156531,-0.527052 0.156532,-0.527035 0.413586,-0.619354 0.413605,-0.619373 1.893545,-1.340529 1.893545,-1.340528 1.244785,-0.87336 1.244804,-0.873361 1.106426,-0.762716 1.106447,-0.762716 -0.237564,-0.537853 -0.237563,-0.537852 -0.32104,-1.141063 -0.321022,-1.141063 -0.203285,-0.881733 -0.203284,-0.881733 -0.218824,-1.348525 -0.218807,-1.348525 -0.15164,-1.296015 -0.15164,-1.296034 V 70.753938 70.05312 h -0.344764 -0.344784 l -0.09614,0.388996 -0.09614,0.388997 -0.233217,0.03311 -0.233236,0.03311 -0.04327,0.226199 -0.04327,0.2262 -0.165187,1.085657 -0.165185,1.085657 -0.217866,0.807474 -0.217884,0.807455 h -0.812384 -0.812366 l -0.05983,-0.09689 -0.05983,-0.09689 -0.203943,-0.966432 -0.203961,-0.966453 -0.126053,-1.04833 -0.126053,-1.048348 -0.273987,-0.103477 -0.273987,-0.103476 -0.117587,-0.611697 -0.117587,-0.611697 -0.126806,-0.985453 -0.126806,-0.985474 -0.0056,-1.867186 -0.0056,-1.867187 0.141293,-0.549798 0.141292,-0.549818 0.22603,-0.148066 0.226031,-0.148065 1.930025,0.02371 1.930006,0.02371 0.211958,0.19194 0.211957,0.191958 0.08466,0.534184 0.08466,0.534165 0.232765,0.03311 0.232785,0.03311 v -4.628204 -4.628184 l -4.745771,0.03217 -4.745772,0.03217 -4.408645,0.807436 -4.408645,0.807457 -3.11199,0.518831 -3.111971,0.51883 -3.786244,0.670661 -3.786243,0.670659 -0.414941,0.197565 -0.414922,0.197564 -0.311201,0.03443 -0.311201,0.03443 0.0094,-0.829862 0.0094,-0.829863 0.265727,-0.518662 0.265729,-0.518662 0.346401,-0.328792 0.346402,-0.328792 1.089194,-0.573617 1.089193,-0.573637 1.763447,-0.817351 1.763465,-0.817352 2.074648,-0.991643 2.074648,-0.991663 2.748919,-1.299797 2.74892,-1.299796 1.919056,-0.903425 1.919057,-0.903426 1.400395,-0.644808 1.400394,-0.644791 0.54519,-0.277581 0.545207,-0.277561 1.68505,-1.272836 1.685068,-1.272818 2.924717,-2.205837 2.924716,-2.205819 0.04177,-9.874895 0.04176,-9.874876 0.16274,-1.244803 0.162741,-1.244785 0.16782,-1.032866 0.16782,-1.032883 0.261212,-1.030514 0.261231,-1.030532 0.370503,-0.944852 0.37052,-0.9448535 0.347663,-0.6224014 0.347662,-0.6223829 0.393306,-0.5153883 0.393285,-0.5153883 0.491439,-0.3038259 0.491418,-0.3038258 0.492154,-0.044025 0.492171,-0.044025 0.570514,0.2928009 0.570532,0.2928009 0.493395,0.6180558 0.493376,0.6180558 0.453114,0.8860794 0.453095,0.8860583 0.21414,0.630342 0.21414,0.63034 0.258842,1.029384 0.258823,1.029385 0.156343,0.834661 0.156344,0.834678 0.160295,1.239988 0.160294,1.239968 0.103665,1.815336 0.103664,1.815316 0.0094,8.298628 0.0094,8.29861 1.418738,1.051415 1.41872,1.051397 1.607874,1.224221 1.607856,1.224202 1.504115,1.135138 1.504135,1.135156 1.452246,0.703942 1.452265,0.703959 2.541458,1.192389 2.541439,1.192387 2.022797,0.956349 2.022797,0.956368 1.192914,0.542668 1.192934,0.542669 0.968408,0.486603 0.968409,0.486603 2.143582,0.989498 2.143563,0.989518 1.244804,0.638771 1.244784,0.638789 0.42732,0.424592 0.427321,0.424592 0.221007,0.590682 0.221007,0.590699 v 0.670378 0.670359 h -0.210057 -0.210058 l -0.59386,-0.209513 -0.593881,-0.209492 -2.541458,-0.458796 -2.541439,-0.458796 -2.126537,-0.365893 -2.126518,-0.365912 -3.371302,-0.578961 -3.371322,-0.578941 -3.163859,-0.588744 -3.163842,-0.588725 -4.745771,-0.0333 -4.745772,-0.0333 v 4.62858 4.62858 l 0.181554,-0.03462 0.181554,-0.03462 0.02728,-0.258277 0.02728,-0.258278 0.102913,-0.376597 0.102912,-0.376599 0.284805,-0.115894 0.284824,-0.115893 1.887073,0.0301 1.887091,0.0301 0.205636,0.186069 0.205655,0.18607 0.125301,0.742961 0.1253,0.74298 -0.05587,1.97104 -0.05587,1.971058 -0.175722,1.141045 -0.175722,1.141063 -0.09708,0.181554 -0.09689,0.181555 h -0.180048 -0.180049 l -0.232785,1.427787 -0.232785,1.427788 -0.181554,0.672805 -0.181554,0.672804 h -0.82832 -0.828302 l -0.223679,-0.881733 -0.223677,-0.881733 -0.187764,-1.213252 -0.187763,-1.213272 -0.232972,-0.05851 -0.232973,-0.05851 -0.11627,-0.38798 -0.11627,-0.387999 h -0.29359 -0.293573 l -0.06679,0.933603 -0.06679,0.933584 -0.205335,1.607855 -0.205335,1.607875 -0.259293,1.296654 -0.259293,1.296655 -0.409787,1.581931 -0.409785,1.58191 -0.156908,0.375753 -0.156908,0.375712 v 0.233462 0.233481 l 2.152462,1.524529 2.152443,1.524511 1.763465,1.243787 1.763466,1.243788 0.292707,0.279066 0.292707,0.279086 0.431892,0.870802 0.431873,0.870801 -0.02841,1.302864 -0.02841,1.302864 -0.02991,0.02991 -0.02991,0.02991 -1.081251,-0.364969 -1.081329,-0.364989 -1.919057,-0.575819 -1.919057,-0.575838 -2.126517,-0.676134 -2.126536,-0.676152 -0.933584,-0.28855 -0.933603,-0.28853 -0.03349,-0.168385 -0.03349,-0.168384 h -0.1008 -0.100655 l 0.03047,0.162552 0.03047,0.162553 -2.126518,0.667178 -2.126518,0.667179 -1.556004,0.477422 -1.555986,0.477422 -2.302465,0.716716 -2.302465,0.716697 -0.161236,0.0619 -0.161234,0.0619 z"
       id="path1-6" /></g></svg>
