<?xml version="1.0" encoding="UTF-8" standalone="no"?>
<!-- Created with Inkscape (http://www.inkscape.org/) -->

<svg
   width="100mm"
   height="100mm"
   viewBox="0 0 100 100"
   version="1.1"
   id="svg1"
   xml:space="preserve"
   xmlns="http://www.w3.org/2000/svg"
   xmlns:svg="http://www.w3.org/2000/svg"><defs
     id="defs1" /><g
     id="layer1"><path
       style="fill:#020202;stroke:none;stroke-width:0.476844"
       d="m 44.292796,84.543782 c 0.01038,-0.315648 0.04701,-0.613291 0.422174,-0.657112 1.194046,-0.139476 2.671177,0.266256 3.867441,0.400555 0.413462,0.04634 1.150631,0.02193 1.477834,0.306984 0.55686,0.48508 0.545371,2.114227 0.647765,2.80932 0.359945,2.44343 0.7324,4.890029 1.187405,7.317575 0.1415,0.754923 0.259235,1.549316 0.53166,2.270904 0.08729,0.231234 0.275315,0.66797 0.597661,0.497453 0.27658,-0.146301 0.335591,-0.561841 0.404585,-0.833828 0.190822,-0.752249 0.333827,-1.510572 0.485645,-2.270978 0.45535,-2.280666 0.751876,-4.599311 1.10823,-6.89702 0.117836,-0.75979 0.08804,-2.230398 0.601556,-2.833066 0.273309,-0.320763 0.979307,-0.303338 1.36867,-0.35008 0.896311,-0.107578 1.795924,-0.179328 2.691524,-0.289313 0.415891,-0.05101 1.016077,-0.217555 1.424941,-0.116331 0.319762,0.07924 0.332408,0.369624 0.341372,0.644913 1.016041,0 2.015975,-0.120275 3.027964,-0.164923 0.502288,-0.02218 1.292535,0.06334 1.753853,-0.138156 0.441201,-0.192686 0.07345,-0.800383 0.605253,-0.933129 1.954717,-0.487939 4.292214,-0.445301 6.304235,-0.607019 1.087821,-0.08737 3.622176,-0.05693 4.17877,-1.185065 0.527165,-1.068464 -0.04793,-3.036489 -0.320348,-4.12107 C 75.94748,73.199831 73.136619,69.813351 70.654955,66.375975 65.255829,58.897595 61.323271,50.697379 58.589374,41.899933 57.448292,38.228028 56.248698,34.443299 55.6964,30.629179 54.669093,23.53468 55.463724,16.363477 54.281131,9.2652127 54.005107,7.6084333 53.718097,5.9536453 53.409396,4.3027165 53.35165,3.9939059 53.327203,2.8061276 52.872027,2.8061276 c -0.420507,0 -0.481287,1.1972758 -0.53737,1.4965889 -0.309308,1.6507949 -0.595712,3.3057369 -0.871733,4.9624962 -1.187178,7.1257863 -0.409362,14.3226823 -1.427859,21.4480773 -0.535161,3.743967 -1.704786,7.507032 -2.853581,11.102533 -2.924591,9.153395 -6.986583,17.414895 -12.585754,25.233027 -2.367977,3.306428 -5.157328,6.673376 -5.981029,10.766102 -0.210108,1.043952 -0.72858,2.789738 -0.181525,3.781576 0.619115,1.122488 3.141657,0.999958 4.252424,1.111015 1.987078,0.198688 4.293285,0.09366 6.220124,0.600906 0.523923,0.137923 0.168206,0.741528 0.605259,0.93223 0.461513,0.201362 1.251416,0.115962 1.753849,0.138156 1.011988,0.04473 2.011922,0.164923 3.027964,0.164923 z"
       id="path13" /></g></svg>
