<?xml version="1.0" encoding="UTF-8" standalone="no"?>
<!-- Created with Inkscape (http://www.inkscape.org/) -->

<svg
   width="100mm"
   height="100mm"
   viewBox="0 0 100 100"
   version="1.1"
   id="svg1"
   xml:space="preserve"
   xmlns="http://www.w3.org/2000/svg"
   xmlns:svg="http://www.w3.org/2000/svg"><defs
     id="defs1" /><g
     id="layer1"><path
       style="fill:#000000;stroke-width:0.388544"
       d="m 34.488905,94.750776 0.0034,-0.796719 0.09514,-1.055097 0.09514,-1.055085 0.19752,-0.446539 0.197528,-0.446537 1.312767,-1.119831 1.312774,-1.119829 0.935463,-0.810725 0.935472,-0.810714 0.257006,-0.219984 0.257001,-0.219972 0.873826,-0.758136 0.873819,-0.758147 1.27515,-1.089625 1.275147,-1.089623 0.883699,-0.759632 0.883705,-0.75961 0.334107,-0.466406 0.334106,-0.466406 -1.44e-4,-0.316008 -1.38e-4,-0.316019 -0.149698,-0.850637 -0.149705,-0.850626 -0.203625,-1.565227 -0.203621,-1.565227 -0.114498,-0.976613 -0.1145,-0.976623 -0.158521,-1.850442 -0.158522,-1.850453 -0.04591,-7.09336 -0.04591,-7.09336 -0.19484,-1.182224 -0.194833,-1.182236 -0.06656,-0.62928 -0.06656,-0.629291 -1.40497,0.364963 -1.404978,0.364973 -0.02726,0.01739 -0.02726,0.01751 -0.155603,0.5974 -0.155601,0.597402 -0.108546,0.343376 -0.131864,0.242365 -0.159737,0.101025 h -0.136422 l -0.137792,-0.15459 -0.04454,-0.193446 -0.08892,-0.469879 -0.104459,-0.648615 -0.03536,-0.03534 -0.03536,-0.03524 -1.314819,0.350425 -1.314827,0.350413 -0.02374,0.03269 -0.02374,0.03269 -0.12228,0.567262 -0.122286,0.567261 -0.108809,0.293408 -0.1632,0.324482 -0.15249,0.03886 -0.136941,-0.03886 -0.134231,-0.178346 -0.08761,-0.302685 -0.09417,-0.393242 -0.07087,-0.626377 -0.166327,0.04876 -0.166334,0.04876 -1.208675,0.30782 -1.20867,0.307831 -1.138071,0.417075 -1.138072,0.417062 H 31.7989 31.698526 l 0.03126,-1.388002 0.03126,-1.388003 -0.0771,1.66e-4 -0.07709,1.77e-4 v 1.438198 1.43821 l -0.905518,0.454771 -0.905519,0.454781 -0.121907,0.528125 -0.184076,0.598076 -0.20332,0.555383 -0.172235,0.392188 -0.169147,0.108796 -0.200319,-0.108796 -0.05406,-0.2827 -0.05406,-0.28271 -0.06682,-0.442173 -0.06682,-0.442161 -0.06719,0.03092 -0.06719,0.03092 -2.266236,1.111542 -2.266235,1.111541 -0.177747,0.689991 -0.162205,0.519025 -0.168405,0.472926 -0.121781,0.200938 -0.200455,0.06528 -0.184915,-0.214475 -0.115367,-0.522113 -0.06874,-0.607595 h -0.03195 -0.03193 l -0.983442,0.462606 -0.983444,0.462615 h -0.04394 -0.04394 l -0.04283,-0.28271 -0.04283,-0.2827 -0.0154,0.338479 -0.0154,0.338491 -2.498296,1.219068 -2.498296,1.219079 -1.125488,0.537233 -1.125487,0.537244 -1.164782,0.552358 -1.164783,0.552369 h -0.04315 -0.04315 v -0.646078 -0.646044 l 4.410777,-2.489428 4.410776,-2.489418 h 0.112528 0.112529 V 59.049139 58.94276 l -0.231306,0.119183 -0.231304,0.119172 -2.056049,1.159909 -2.056047,1.159908 -2.261653,1.27487 -2.261652,1.27487 -0.0514,0.737726 -0.0514,0.737747 -1.2336271,0.614676 -1.23363,0.614675 -1.4819748,1.340168 -1.4819756,1.340168 H 5.0008821 4.8490764 l 0.062372,-0.591118 0.062384,-0.591107 0.4176741,-1.169016 0.417673,-1.169029 0.6599286,-1.628695 0.6599286,-1.628697 0.3538364,-0.553145 0.3538363,-0.553133 0.345571,-0.332419 0.345571,-0.332429 5.1401206,-3.859781 5.140119,-3.85979 0.186578,-0.176648 0.186579,-0.176636 -0.07158,-0.882238 -0.07158,-0.88224 -0.231301,-0.05807 -0.231305,-0.05806 -0.06832,-0.283798 -0.06832,-0.283819 -0.05962,-1.597527 -0.05961,-1.597526 0.126906,-0.752396 0.12691,-0.752408 0.19443,-0.194431 0.194432,-0.194432 h 1.676589 1.676592 l 0.165693,0.128513 0.16569,0.128502 0.115422,0.411202 0.115421,0.411213 0.05637,1.130822 0.05636,1.130832 -0.09327,0.742169 -0.09327,0.74217 0.109543,-0.08654 0.109543,-0.08654 2.261652,-1.72604 2.261653,-1.726028 1.953244,-1.520129 1.953246,-1.520105 0.345286,-0.290291 0.345284,-0.290279 -0.07483,-0.898328 -0.07482,-0.89834 -0.234941,-0.05895 -0.234942,-0.05895 -0.06133,-0.326944 -0.06133,-0.326946 -0.101046,-1.060548 -0.101057,-1.060549 0.09998,-0.942584 0.09998,-0.942573 0.105748,-0.37438 0.105749,-0.374382 0.168244,-0.139638 0.168242,-0.139627 h 1.603339 1.603338 l 0.227815,0.130253 0.227812,0.130252 0.131996,0.435159 0.131995,0.435158 v 1.773365 1.773365 l 0.01972,-2.2e-5 0.01973,-2.2e-5 2.293354,-1.827372 2.293354,-1.827361 1.233626,-0.968602 1.233631,-0.96859 0.63593,-0.548025 0.635928,-0.548026 0.225971,-0.365627 0.22597,-0.365628 0.394949,-1.559009 0.39495,-1.559 0.0031,-4.060694 0.0031,-4.060697 0.103307,-1.953249 0.103307,-1.953243 0.106496,-1.028021 0.106495,-1.028028 0.205944,-1.439235 0.205937,-1.439229 0.313125,-1.439236 0.313127,-1.4392346 0.444146,-1.353129 0.444142,-1.3531355 0.463609,-0.9659422 0.46361,-0.9659477 0.473657,-0.5268193 0.473658,-0.5268248 0.347641,-0.114731 0.347635,-0.114731 0.342925,0.1440901 0.342925,0.1440913 0.42969,0.4676599 0.429692,0.4676543 0.463263,0.9610491 0.463258,0.9610567 0.355384,1.0320833 0.355386,1.0320846 0.368065,1.5893738 0.368076,1.58938 0.204682,1.285026 0.20468,1.285028 0.156736,1.439236 0.156735,1.439236 0.103936,1.836144 0.103937,1.836145 v 4.097655 4.097658 l 0.357051,1.492339 0.35704,1.49236 0.199882,0.386825 0.199884,0.386835 0.445397,0.424311 0.445397,0.42431 1.747635,1.369332 1.747648,1.369332 2.020229,1.624542 2.02023,1.62453 h 0.03579 0.03579 V 38.05534 36.179202 l 0.205612,-0.411213 0.205602,-0.411202 0.983826,-0.09097 0.983825,-0.09086 0.780742,0.07314 0.780729,0.07313 0.163484,0.120558 0.163471,0.120557 0.151927,0.71962 0.151926,0.719609 0.0022,1.149094 0.0022,1.149093 -0.111692,0.804154 -0.111682,0.804154 -0.03092,0.03125 -0.03092,0.03125 -0.21134,0.01595 -0.21133,0.01595 -0.06959,0.672483 -0.06959,0.672483 -0.01341,0.250355 -0.0134,0.250345 1.55676,1.240287 1.556751,1.240287 1.064714,0.81652 1.064694,0.816542 1.984649,1.522212 1.984639,1.522234 0.02006,2.2e-5 0.02006,2.2e-5 v -1.87616 -1.876182 l 0.136735,-0.386281 0.136746,-0.386304 0.209679,-0.112214 0.209667,-0.112214 1.504028,-0.01108 1.50404,-0.01108 0.220249,0.07612 0.22025,0.07612 0.109365,0.279287 0.109366,0.279287 0.10726,0.609989 0.10726,0.609999 v 0.97648 0.97648 l -0.115226,0.898461 -0.115228,0.89845 -0.22834,0.05729 -0.228337,0.05729 -0.109366,0.901586 -0.109365,0.901574 0.07214,0.05141 0.07224,0.05141 4.15868,3.12612 4.158679,3.12611 1.253329,0.962629 1.253329,0.962618 0.353982,0.413562 0.354004,0.413551 0.311554,0.586431 0.311543,0.58642 0.534251,1.336433 0.534252,1.336423 0.451048,1.26605 0.451048,1.266049 v 0.558697 0.558696 h -0.101057 -0.101057 l -1.46666,-1.333955 -1.466642,-1.333951 -1.259324,-0.615295 -1.259335,-0.615285 v -0.720008 -0.720008 l -0.231296,-0.112081 -0.231309,-0.112091 0.179894,0.1455 0.179905,0.14551 v 0.631186 0.631174 H 89.93261 89.86546 L 89.238687,65.12929 88.611922,64.832119 85.990458,63.5751 83.369004,62.31808 82.161072,61.712636 80.95314,61.107179 v -0.975837 -0.975826 h 0.108923 0.108922 l -0.0635,-0.102827 -0.0635,-0.102827 h -0.09674 -0.09674 v 1.039019 1.039018 l -0.162618,-0.06239 -0.162609,-0.06239 h -0.0944 -0.0944 l -0.01396,-0.282701 -0.01396,-0.282711 -0.04422,0.228816 -0.04421,0.228825 -1.019329,-0.511526 -1.019328,-0.511526 h -0.0533 -0.0533 v 0.149145 0.149135 l -0.111255,0.51909 -0.150172,0.425807 -0.104184,0.09325 H 77.56621 L 77.390393,60.77462 77.214566,60.440517 77.047559,59.823703 76.88054,59.20689 l -2.306962,-1.141083 -2.306964,-1.141094 -0.06903,0.215873 -0.06903,0.215861 -0.120218,0.441675 -0.120218,0.363973 -0.177467,0.108796 -0.20081,-0.03109 -0.250426,-0.561562 -0.164944,-0.530477 -0.07059,-0.44143 -0.07059,-0.441431 -0.911127,-0.457584 -0.911104,-0.457586 -0.02138,-1.0013 -0.02138,-1.00129 -0.0339,0.950928 -0.0339,0.950917 h -0.05186 -0.05186 l -1.049458,-0.361051 -1.049445,-0.361051 -0.205601,-0.09075 -0.205612,-0.09076 -1.182225,-0.283431 -1.182225,-0.283442 -0.120989,-0.04387 -0.12099,-0.04388 -0.06549,0.496434 -0.06549,0.496423 -0.05296,0.28271 -0.07628,0.181675 -0.16241,0.101025 -0.216808,-0.147652 -0.133761,-0.199736 -0.164835,-0.347377 -0.137754,-0.538241 -0.137744,-0.538242 -0.146031,-0.08033 -0.146043,-0.08034 -1.177881,-0.316319 -1.177892,-0.316307 -0.101005,0.051 -0.03883,0.175336 -0.06659,0.502096 -0.03551,0.292276 -0.05084,0.24621 -0.120899,0.199584 -0.203983,0.01554 -0.18843,-0.139881 -0.196655,-0.382522 -0.06454,-0.297028 -0.117643,-0.515714 -0.117654,-0.515726 -1.306229,-0.344219 -1.306239,-0.34422 -0.121277,-0.04576 -0.121289,-0.04576 -0.06272,0.494462 -0.06272,0.494473 -0.199384,1.336434 -0.199384,1.336422 -0.04432,6.88777 -0.04432,6.88776 -0.113709,1.490632 -0.113698,1.490632 -0.210732,1.922953 -0.210709,1.922954 -0.333825,2.221044 -0.333804,2.221055 0.17739,0.379301 0.177378,0.379301 0.240272,0.270843 0.240272,0.270844 2.621454,2.244169 2.621465,2.244181 1.799049,1.540716 1.79904,1.540727 0.991183,0.854106 0.991173,0.854116 0.149755,0.230277 0.149765,0.230267 0.125588,0.383179 0.125609,0.383179 0.08576,1.672874 0.08576,1.672853 -0.07169,0.07645 -0.07169,0.07645 -0.715144,-0.203607 -0.715143,-0.203596 -3.443881,-1.003738 -3.443879,-1.003748 -0.0287,-1.362042 -0.0287,-1.362052 h 0.05152 0.05152 l 1.715647,0.822958 1.715646,0.822947 0.03546,-0.03546 0.03546,-0.03534 -1.825322,-0.87938 -1.825322,-0.879381 -2.500974,-1.20576 -2.500989,-1.205749 -0.08952,0.08965 -0.08952,0.08965 -0.053,0.462616 -0.05301,0.462604 0.110275,-0.488311 0.110275,-0.488312 0.06598,0.0066 0.06597,0.0066 2.415858,1.155853 2.415852,1.155853 0.02859,1.415959 0.02859,1.41596 -0.182852,-0.05485 -0.182864,-0.05485 -2.00464,-0.582452 -2.004647,-0.582443 -0.612253,-0.167595 -0.61226,-0.167616 -0.05803,-0.245824 -0.05803,-0.245812 -0.131335,0.657336 -0.168978,0.07393 c -0.122892,0.302984 -1.109466,2.276208 -1.284398,2.375078 -0.274029,-0.157528 -1.134685,-2.101459 -1.259676,-2.335955 l -0.352781,-1.246556 -0.39042,-1.980551 -0.03498,0.104928 -0.03498,0.104939 0.265422,1.310672 0.265428,1.31066 -0.07942,0.0687 -0.07943,0.0687 -2.570055,0.751432 -2.570061,0.751432 -0.30841,0.07446 -0.308402,0.07458 -3.084075,0.899491 -3.08407,0.899492 -0.174963,0.04876 -0.174964,0.04876 -0.03624,-0.704606 -0.03617,-0.704616 -0.02016,0.734057 -0.02016,0.734047 -0.803722,0.21688 -0.803719,0.21686 h -0.0701 -0.07011 z M 64.400939,94.05755 v -0.564724 l -1.450198,-0.72649 -1.450188,-0.726467 -0.03667,0.03667 -0.03668,0.03668 1.435473,0.711874 1.435461,0.711886 v 0.54264 0.542652 h 0.05141 0.05141 z m -21.46,-3.649934 0.0771,-2.34e-4 0.01966,0.899514 0.01965,0.899526 0.0574,-0.972292 0.0574,-0.97228 2.485631,-1.185328 2.485633,-1.185316 -0.03637,-0.03634 -0.03636,-0.03634 -1.729647,0.822836 -1.729653,0.822835 -3.44388,1.661142 -3.443882,1.661151 -0.693913,0.314877 -0.693913,0.314867 v 0.08167 0.08167 l 3.263976,-1.585826 3.263974,-1.585825 z m 9.204101,-0.257248 0.0019,-0.205601 -0.08231,0.257004 -0.08231,0.257015 0.0019,0.257004 0.0019,0.257003 0.07847,-0.308406 0.07847,-0.308408 z m 0.0905,-0.591108 -0.05188,-0.128502 v 0.257004 0.257005 l 0.05188,-0.128502 0.05187,-0.128503 z m 0.102806,-0.514019 -0.05187,-0.128502 v 0.257004 0.257015 l 0.05187,-0.128512 0.05188,-0.128503 z m -4.112097,-0.925221 -0.05187,-0.128501 v 0.257003 0.257016 l 0.05187,-0.128514 0.05187,-0.128502 z m 41.304737,-24.324702 -0.09762,-0.08909 -0.71962,-0.390979 -0.71962,-0.390969 0.08188,0.09076 0.08188,0.09076 0.689115,0.387145 0.689114,0.387157 0.04632,0.0022 0.04632,0.0022 z m -1.588307,-0.88758 v -0.05141 h -0.05141 -0.05141 v 0.05141 0.05141 h 0.05141 0.05141 z m -0.205601,-0.09308 v -0.04167 l -0.43691,-0.250256 -0.436908,-0.250255 -0.616814,-0.340353 -0.616814,-0.340352 0.102827,0.106591 0.102827,0.106592 0.925232,0.525111 0.92521,0.5251 0.0257,3.88e-4 0.02571,3.87e-4 z m -2.158849,-1.241307 v -0.04931 l -0.411202,-0.209779 -0.411213,-0.209789 v 0.05108 0.05108 l 0.385506,0.203518 0.385506,0.203518 0.02571,0.0045 0.02571,0.0045 z m -0.925221,-0.509554 v -0.04488 l -0.899525,-0.505431 -0.899525,-0.505421 -0.822415,-0.443901 -0.822415,-0.443901 0.07335,0.08244 0.07335,0.08233 1.622867,0.90993 1.622846,0.90994 0.02571,0.0022 0.0257,0.0022 z m -4.420504,-1.136882 v -0.256517 l -2.065272,-1.033623 -2.065273,-1.033622 0.05197,0.08221 0.05197,0.08221 1.96188,0.974463 1.961891,0.974464 v 0.233469 0.233469 h 0.05141 0.05141 z m -56.538288,-1.78162 3.081052,-1.575498 v -0.05242 -0.05242 l -2.820967,1.446177 -2.820966,1.446165 -0.04023,-0.3837 -0.04021,-0.383722 -0.01729,0.42041 -0.01729,0.420409 -0.257006,0.117101 -0.257005,0.117099 0.01192,0.18211 0.01192,0.18211 0.0425,-0.154208 0.0425,-0.154198 z m 55.995105,0.316197 -0.04288,-0.282712 v 0.565411 0.565411 l 0.04288,-0.2827 0.04288,-0.282711 z m -57.507843,-1.086001 1.14991,-0.658655 0.668216,-0.367101 0.668215,-0.367101 1.284727,-0.727919 1.284724,-0.72792 0.127575,0.04898 0.127573,0.04897 -0.02446,-0.09962 -0.02446,-0.09962 1.490634,-0.870349 1.490635,-0.87035 0.35594,0.715432 0.355941,0.71542 -0.09893,0.09185 -0.09893,0.09185 -2.030346,1.048726 -2.030347,1.048725 v 0.04432 0.04432 l 0.642514,-0.32146 0.642516,-0.321459 1.565422,-0.817727 1.565423,-0.81774 -0.412099,-0.819611 -0.412098,-0.819622 -0.07389,0.04266 -0.0739,0.04266 -2.621461,1.485224 -2.62146,1.485236 -1.799042,1.013167 -1.799042,1.013169 -0.282706,0.194221 -0.282706,0.19421 0.01192,0.172902 0.01192,0.172901 0.04608,-0.175129 0.04609,-0.175117 z m 57.480474,0.562318 -0.09762,-0.08677 -2.827066,-1.597516 -2.827065,-1.597504 -1.820746,-1.029633 -1.820734,-1.029634 -0.09474,0.118164 -0.09474,0.118142 -0.320429,0.639584 -0.320419,0.639585 v 0.05318 0.05318 l 0.822415,0.413506 0.822415,0.413507 v -0.05119 -0.05119 l -0.745316,-0.373162 -0.745316,-0.373151 -0.03225,-0.0288 -0.03225,-0.0288 0.363789,-0.722401 0.363799,-0.722401 1.492027,0.840365 1.492017,0.840377 0.0011,0.134563 0.0011,0.134574 0.105706,-0.06537 0.105707,-0.06537 0.639629,0.357073 0.639629,0.357073 2.464075,1.398419 2.464065,1.398419 h 0.04953 0.04942 z M 76.01761,57.5627 v -0.05063 l -1.336434,-0.669694 -1.336434,-0.669691 v 0.05141 0.05141 l 1.310727,0.66363 1.310738,0.66364 0.02571,0.0055 0.0257,0.0055 z M 24.513611,57.150757 v -0.05141 h -0.0514 -0.0514 v 0.05141 0.05141 h 0.0514 0.0514 z m 51.956165,-0.334104 0.169921,-0.334103 h -0.05141 -0.05141 l -0.156846,0.3033 -0.156846,0.303298 v 0.07368 0.07369 l 0.03834,-0.04288 0.03834,-0.04278 z m -52.058968,0.128502 v -0.05141 h -0.0514 -0.0514 v 0.05141 0.05141 h 0.0514 0.0514 z m -0.102805,-0.205601 v -0.05141 h -0.0514 -0.0514 v 0.05141 0.05141 h 0.0514 0.0514 z m -0.102806,-0.205601 v -0.05141 h -0.0514 -0.0514 v 0.05141 0.05141 h 0.0514 0.0514 z m 49.036728,-0.411212 v -0.05141 h -0.05141 -0.05141 v 0.05141 0.05141 h 0.05141 0.05141 z m -0.205601,-0.102827 v -0.05141 h -0.05141 -0.05141 v 0.05141 0.05141 h 0.05141 0.05141 z m -0.205602,-0.101611 v -0.0502 l -0.822426,-0.413504 -0.822415,-0.413506 v 0.05131 0.05131 l 0.796719,0.407314 0.796719,0.407323 0.02571,0.0055 0.0257,0.0055 z m -44.92464,-0.515161 v -0.05141 h -0.0514 -0.0514 v 0.05141 0.05141 h 0.0514 0.0514 z m 45.121986,-0.257003 0.122397,-0.257004 -0.159872,0.199551 -0.159871,0.199551 v 0.100278 0.100278 l 0.03745,-0.04288 0.03745,-0.04277 z m -45.224789,0.05141 v -0.05141 h -0.0514 -0.0514 v 0.05141 0.05141 h 0.0514 0.0514 z m -0.102805,-0.205612 v -0.05141 h -0.0514 -0.0514 v 0.05141 0.05141 h 0.0514 0.0514 z m -0.102806,-0.205601 v -0.05141 h -0.0514 -0.0514 v 0.05141 0.05141 h 0.0514 0.0514 z m 45.644257,0 v -0.05141 h -0.05141 -0.05141 v 0.05141 0.05141 h 0.05141 0.05141 z m -6.652297,-2.847687 0.124347,-0.079 -0.179905,-0.0011 -0.179905,-0.0011 0.02138,1.053722 0.02138,1.053734 0.03424,-0.973122 0.03424,-0.973122 z m -32.236349,-0.04299 -0.03845,-0.03845 -1.19774,0.275764 -1.197738,0.275763 0.04233,0.04233 0.04233,0.04233 1.009404,-0.229369 1.009405,-0.22938 0.128503,-0.04864 0.128503,-0.04864 0.02069,0.807723 0.02069,0.80771 0.03526,-0.809295 0.03526,-0.809306 z m 0.337753,0.937431 v -0.05141 h -0.0514 -0.0514 v 0.05141 0.05141 h 0.0514 0.0514 z m 31.526066,-0.01717 -0.06848,-0.06848 -0.06859,0.06848 -0.06858,0.06848 h 0.137078 0.137056 z m -31.229581,-0.573977 -0.01193,-0.539715 -0.03353,0.154198 -0.03353,0.15421 -0.03667,0.385517 -0.03668,0.385495 h 0.08216 0.08215 z m 30.889827,0.385507 -0.05917,-0.154198 h -0.02936 -0.02936 l -0.05917,0.154198 -0.05917,0.154198 h 0.147749 0.14775 z m 3.117909,-0.117444 -0.05318,-0.05318 -0.79038,-0.202476 -0.79037,-0.202488 -0.108146,0.03601 -0.108148,0.03601 0.848843,0.193877 0.848841,0.193867 0.05961,0.155461 0.05961,0.155472 0.04321,-0.129721 0.04333,-0.129743 z m -33.612448,0.106707 -0.06211,-0.06216 -0.134927,0.05396 -0.134929,0.05396 0.197039,0.0078 0.197038,0.0078 z m 30.14038,0.01984 -0.04288,-0.04233 -0.65389,-0.169123 -0.65389,-0.169112 -0.04488,0.04488 -0.04488,0.04488 0.595982,0.15627 0.595982,0.15627 0.145633,0.01002 0.145643,0.01002 z m -29.729171,-0.122674 -0.06211,-0.06216 -0.134929,0.05396 -0.134928,0.05396 0.197039,0.0078 0.197038,0.0078 z m 0.411214,-0.102827 -0.06211,-0.06205 -0.134928,0.05396 -0.134927,0.05396 0.197037,0.0078 0.197032,0.0078 z m 1.207858,-0.307631 0.413419,-0.137489 -0.357595,0.06138 -0.357602,0.06139 -0.413419,0.137477 -0.413419,0.137488 0.357596,-0.06138 0.3576,-0.06138 z m 26.548795,0.102048 -0.06216,-0.06206 -0.13493,0.05396 -0.134928,0.05396 0.197035,0.0078 0.197036,0.0078 z m -0.411213,-0.102827 -0.06206,-0.06206 -0.134928,0.05396 -0.13493,0.05396 0.197037,0.0078 0.197035,0.0078 z m -43.2795,-1.300023 -0.03935,-0.436908 v 0.873828 0.873807 l 0.03935,-0.436899 0.03935,-0.436908 z m 42.741924,1.163355 -0.205602,-0.08299 -0.359809,-0.06072 -0.359811,-0.06072 0.411213,0.142275 0.411202,0.142265 0.15421,0.0011 0.154198,0.0011 z m 2.687039,-1.292001 -0.04776,-0.124602 -0.689879,-0.173289 -0.68987,-0.173291 -0.0441,0.0441 -0.0441,0.04422 0.545255,0.127971 0.545268,0.127969 0.179904,0.09286 0.179905,0.09286 0.01973,0.690289 0.01984,0.690301 0.0369,-0.657381 0.0369,-0.65739 z m 1.34582,1.325874 -0.06216,-0.06216 -0.134929,0.05396 -0.134928,0.05396 0.197047,0.0078 0.197035,0.0078 z m -28.88748,-0.102827 -0.06211,-0.06206 -0.134928,0.05396 -0.134928,0.05396 0.197038,0.0078 0.197038,0.0078 z m 1.004465,-0.26014 0.205604,-0.08998 -0.359806,0.06527 -0.359812,0.06527 -0.205604,0.08998 -0.205604,0.08998 0.359811,-0.06527 0.359805,-0.06527 z m 41.248583,-1.810906 -0.0359,-0.693913 v 1.387826 1.387848 l 0.0359,-0.693924 0.03601,-0.693924 z m -18.402886,1.865434 -0.06216,-0.06206 -0.134929,0.05396 -0.134929,0.05396 0.197047,0.0078 0.197036,0.0078 z m -0.537576,-0.143494 -0.205601,-0.08831 h -0.154209 -0.154198 l 0.2056,0.08831 0.205601,0.08831 h 0.15421 0.154198 z m -21.770552,-0.06206 -0.06211,-0.06206 -0.134927,0.05396 -0.134928,0.05396 0.197038,0.0078 0.197037,0.0078 z m -4.053295,-0.998574 0.534455,-0.162398 -0.359806,0.05917 -0.359812,0.05917 -0.231302,0.0872 -0.231308,0.0872 0.01796,0.439457 0.01796,0.439447 0.03868,-0.423446 0.03868,-0.423435 z m 4.464503,0.895779 -0.06211,-0.06216 -0.134927,0.05396 -0.134927,0.05396 0.197037,0.0078 0.197038,0.0078 z m 20.766087,0 -0.06206,-0.06216 -0.134928,0.05396 -0.13493,0.05396 0.197037,0.0078 0.197035,0.0078 z m 18.813279,-1.091708 -0.03945,-0.439623 -6.21e-4,0.822415 -6.31e-4,0.822415 0.04023,-0.382792 0.04011,-0.382779 z m -38.574902,0.831557 0.205612,-0.08998 -0.359813,0.06527 -0.359805,0.06527 -0.205605,0.08998 -0.205604,0.08998 0.359806,-0.06527 0.359805,-0.06527 z m 19.369691,0.177213 -0.04288,-0.04222 -0.65389,-0.169124 -0.65389,-0.169123 -0.04488,0.04488 -0.04488,0.04488 0.595982,0.15627 0.595983,0.15627 0.145632,0.01003 0.145644,0.01002 z m -18.832114,-0.328274 -0.06211,-0.06206 -0.134928,0.05396 -0.134927,0.05396 0.197037,0.0078 0.197038,0.0078 z m -20.662272,-1.762629 -0.0371,-0.591117 v 1.182224 1.182236 l 0.0371,-0.591129 0.0371,-0.591107 z m 21.07348,1.659822 -0.06211,-0.06206 -0.134927,0.05396 -0.134928,0.05396 0.197038,0.0078 0.197037,0.0078 z m 16.878871,0.01984 -0.04277,-0.04222 -0.653891,-0.169124 -0.653889,-0.169123 -0.04488,0.04488 -0.04488,0.04488 0.595982,0.156271 0.595983,0.156259 0.145632,0.01002 0.145644,0.01002 z m -15.598289,-0.332729 1.012841,-0.272174 -0.04245,-0.04243 -0.04246,-0.04244 -1.013256,0.274556 -1.013256,0.274545 -0.04283,0.04011 -0.04283,0.04011 h 0.08569 0.08569 z m 14.036974,-0.0984 -0.06205,-0.06206 -0.13493,0.05396 -0.134928,0.05396 0.197035,0.0078 0.197036,0.0078 z m -0.537565,-0.143505 -0.205613,-0.08831 h -0.154198 -0.154198 l 0.205601,0.08831 0.205602,0.08831 h 0.154208 0.154198 z m -20.331321,-0.06206 -0.06211,-0.06206 -0.13493,0.05396 -0.134927,0.05396 0.197038,0.0078 0.197039,0.0078 z m 0.411207,-0.102827 -0.06211,-0.06216 -0.134928,0.05396 -0.134928,0.05396 0.197038,0.0078 0.197039,0.0078 z m 7.812985,0 -0.06211,-0.06216 -0.134928,0.05396 -0.134928,0.05396 0.197038,0.0078 0.197039,0.0078 z m 11.513872,0 -0.06216,-0.06216 -0.134929,0.05396 -0.134918,0.05396 0.197036,0.0078 0.197035,0.0078 z m 7.81298,0 -0.06206,-0.06216 -0.134929,0.05396 -0.134928,0.05396 0.197035,0.0078 0.197036,0.0078 z m -43.690572,-1.194503 -0.03948,-0.439623 -6.9e-4,0.822415 -6.91e-4,0.822415 0.04016,-0.382792 0.04015,-0.38279 z m 18.075437,0.831791 1.285857,-0.322015 -0.04357,-0.04354 -0.04359,-0.04354 -0.617327,0.15996 -0.617322,0.15997 h -0.158552 -0.158554 l -0.04145,-0.334113 -0.04145,-0.334104 -0.01646,0.379534 -0.01646,0.379533 -0.488315,0.149478 -0.488309,0.149478 0.0798,0.01108 0.0798,0.01108 z m 6.521732,-0.706003 v -1.028026 l -0.179906,0.0078 -0.179906,0.0078 0.128503,0.05186 0.128504,0.05186 v 0.968059 0.968058 h 0.05143 0.05143 z m 11.029713,-0.945853 0.124347,-0.079 -0.179906,-0.0011 -0.179905,-0.0011 0.02138,1.053735 0.02138,1.053712 0.03424,-0.973112 0.03424,-0.973123 z m 7.652477,1.911762 -0.06206,-0.06205 -0.134929,0.05396 -0.134928,0.05396 0.197046,0.0078 0.197035,0.0078 z m -0.666067,-0.168857 -0.334115,-0.10715 -0.0078,-0.165035 -0.0078,-0.165023 -0.05186,0.12849 -0.05186,0.128513 -0.222743,0.01002 -0.222732,0.01002 0.462606,0.13402 0.462616,0.13402 0.154198,-3.99e-4 0.154209,-3.87e-4 z m -0.959837,-0.22343 -0.04321,-0.04321 -1.072571,-0.271885 -1.072583,-0.271886 -0.18017,-0.0964 -0.180161,-0.09641 -0.05651,0.09142 -0.05651,0.09142 1.206791,0.310302 1.206779,0.310291 0.145632,0.01002 0.145634,0.01002 z m 17.765949,-1.162446 -0.04044,-0.387799 -6.31e-4,0.719608 -6.31e-4,0.71962 0.04134,-0.331809 0.04122,-0.33182 z m -39.681795,0.835124 -0.06211,-0.06216 -0.134927,0.05396 -0.134927,0.05396 0.197037,0.0078 0.197038,0.0078 z M 62.72453,49.005497 62.6771,48.82363 l -0.0033,0.308418 -0.0033,0.308408 0.05119,-0.126553 0.05119,-0.12654 z m -22.201601,0.218642 -0.06211,-0.06216 -0.134928,0.05396 -0.134928,0.05396 0.197033,0.0078 0.197042,0.0078 z m 0.411208,-0.102827 -0.06211,-0.06216 -0.134928,0.05396 -0.134927,0.05396 0.197037,0.0078 0.197039,0.0078 z m 0.373841,-0.119372 -0.116609,-0.07557 -0.05137,-0.205612 -0.05137,-0.20559 -0.01193,0.2827 -0.01193,0.282711 0.179905,-0.0011 0.1799,-0.0011 z m -2.935744,-0.842802 0.379492,-0.105376 0.145637,-3.88e-4 0.145634,-3.88e-4 -0.06298,-0.06294 -0.063,-0.06294 -0.51956,0.124645 -0.519558,0.124635 0.01728,0.426648 0.01728,0.42666 0.04013,-0.382337 0.04013,-0.382337 z m 3.38432,0.756573 -0.06211,-0.06206 -0.134929,0.05396 -0.134928,0.05396 0.197038,0.0078 0.197039,0.0078 z m 17.476405,0 -0.06206,-0.06206 -0.134928,0.05396 -0.134929,0.05396 0.197036,0.0078 0.197047,0.0078 z m 21.074036,-0.784175 -0.04155,-0.335954 -0.0011,0.616825 -0.0011,0.616814 0.04266,-0.280872 0.04266,-0.28086 z m -37.545978,0.524025 0.205605,-0.08998 -0.359806,0.06527 -0.359805,0.06527 -0.205612,0.08998 -0.205604,0.08998 0.359813,-0.06527 0.359805,-0.06527 z m 16.060741,0.157345 -0.06216,-0.06205 -0.134929,0.05396 -0.134918,0.05396 0.197036,0.0078 0.197035,0.0078 z m -0.537577,-0.136669 -0.205601,-0.08299 -0.35981,-0.06072 -0.35981,-0.06072 0.411213,0.142253 0.411202,0.142264 0.15421,0.0011 0.154208,0.0011 z m 1.468227,-0.675042 0.0022,-0.205613 -0.08233,0.257015 -0.08233,0.257004 0.0022,0.257004 0.0022,0.257005 0.07845,-0.308396 0.07845,-0.308408 z m 3.106486,0.462604 v -0.308396 l -0.179906,0.0078 -0.179905,0.0078 0.128502,0.05186 0.128502,0.05186 v 0.248438 0.248439 h 0.05141 0.05141 z m -19.560306,0.04066 -0.06211,-0.06206 -0.134929,0.05396 -0.134927,0.05396 0.197037,0.0078 0.197039,0.0078 z m -2.268529,-0.374802 -0.05187,-0.128502 v 0.257015 0.257003 l 0.05187,-0.128501 0.05188,-0.128502 z m 2.679743,0.272007 -0.06211,-0.06216 -0.134927,0.05396 -0.134935,0.05396 0.197038,0.0078 0.197037,0.0078 z m 13.569921,0 -0.06216,-0.06216 -0.134928,0.05396 -0.134919,0.05396 0.197037,0.0078 0.197036,0.0078 z m -36.805671,-0.683209 -0.04456,-0.231308 v 0.462604 0.462617 l 0.04456,-0.231308 0.04456,-0.231309 z m 0.41121,0 -0.04456,-0.231308 v 0.462604 0.462617 l 0.04456,-0.231308 0.04456,-0.231309 z m 23.235749,0.580403 -0.06211,-0.06216 -0.134928,0.05396 -0.134929,0.05396 0.197039,0.0078 0.197038,0.0078 z m 12.747498,0 -0.06206,-0.06216 -0.134929,0.05396 -0.134929,0.05396 0.197036,0.0078 0.197035,0.0078 z m -12.33629,-0.102827 -0.06211,-0.06206 -0.134927,0.05396 -0.13493,0.05396 0.197039,0.0078 0.197039,0.0078 z m 11.925078,0 -0.06206,-0.06206 -0.134929,0.05396 -0.134928,0.05396 0.197035,0.0078 0.197036,0.0078 z m 5.962538,-0.102827 -0.06206,-0.06206 -0.134928,0.05396 -0.13493,0.05396 0.197036,0.0078 0.197036,0.0078 z m -0.411202,-0.102827 -0.06216,-0.06206 -0.134929,0.05396 -0.134929,0.05396 0.197047,0.0078 0.197036,0.0078 z m 17.885355,-0.4764 -0.04477,-0.232516 -0.0022,0.411212 -0.0022,0.411213 0.04676,-0.178708 0.04676,-0.178697 z m -40.501885,0.373594 -0.06211,-0.06206 -0.13493,0.05396 -0.134927,0.05396 0.197032,0.0078 0.197038,0.0078 z m 22.205317,0 -0.06205,-0.06206 -0.134929,0.05396 -0.134929,0.05396 0.197036,0.0078 0.197035,0.0078 z m -21.794109,-0.102827 -0.06211,-0.06206 -0.134929,0.05396 -0.134928,0.05396 0.197038,0.0078 0.197038,0.0078 z m 1.093132,-0.239719 -0.08866,-0.07822 -0.257007,0.07701 -0.257007,0.07701 0.282706,0.01002 0.28271,0.01002 0.0081,0.128514 0.0081,0.128491 0.05489,-0.1375 0.05483,-0.137488 z m 20.289764,0.239719 -0.06205,-0.06206 -0.134929,0.05396 -0.134928,0.05396 0.197035,0.0078 0.197036,0.0078 z m -20.971688,-0.102827 -0.06211,-0.06216 -0.134929,0.05396 -0.134927,0.05396 0.197038,0.0078 0.197038,0.0078 z m 20.002167,-0.03191 0.327798,0.09397 0.154874,-0.0089 0.154885,-0.0089 -0.257004,-0.07723 -0.257005,-0.07723 -0.28271,-0.07003 -0.282711,-0.07003 0.0078,0.181866 0.0078,0.181866 0.04897,-0.119714 0.04897,-0.119715 z m 19.976322,-0.374614 -0.05684,-0.148193 -0.131727,0.0078 -0.131727,0.0078 0.128503,0.05186 0.128502,0.05186 0.01197,0.274146 0.01197,0.274134 0.0482,-0.18591 0.0482,-0.185911 z m -59.484676,0.04887 0.0016,0.145642 0.05381,-0.05385 0.05381,-0.05386 -0.06458,-0.168326 -0.06458,-0.168325 -0.09203,0.05684 -0.09202,0.05684 0.0016,0.173834 0.0016,0.173832 0.09965,-0.154198 0.09966,-0.154198 z m 46.750194,-7.521704 -0.03546,-0.745316 v 1.490632 1.490632 l 0.03546,-0.745316 0.03546,-0.745316 z m -0.720672,0.308406 -0.03933,-0.436908 v 0.873818 0.873818 l 0.03933,-0.43691 0.03933,-0.436908 z m -33.410492,-0.976623 -0.03851,-0.488313 v 0.976625 0.976624 l 0.03851,-0.488313 0.03851,-0.488311 z m 0.616372,-0.260107 -0.0392,-0.433806 5.82e-4,0.92522 5.84e-4,0.925221 0.03863,-0.491414 0.03863,-0.491414 z m 32.89667,-0.354413 -0.04044,-0.3878 -6.32e-4,0.719608 -6.2e-4,0.71962 0.04122,-0.331809 0.04122,-0.33182 z m 0.512757,-0.309283 -0.04299,-0.284129 -0.0011,0.514019 -0.0011,0.514008 0.04443,-0.22989 0.04443,-0.229889 z m -33.926009,-0.361228 -0.04456,-0.231297 v 0.462605 0.462615 l 0.04456,-0.231307 0.04456,-0.231308 z m 0.411366,-0.101612 -0.04471,-0.232493 -0.0021,0.411201 -0.0021,0.411214 0.04678,-0.178708 0.04679,-0.178698 z m 33.256254,-0.46339 0.107038,-0.128913 h -0.104384 -0.104384 l -0.06239,0.162609 -0.06239,0.162619 0.01651,0.325693 0.0164,0.325704 0.04333,-0.3594 0.04332,-0.359389 z m 0.153057,0.207152 -0.04743,-0.181867 -0.0033,0.308419 -0.0033,0.308395 0.05119,-0.12654 0.05119,-0.126551 z m -33.575983,-0.119682 0.09082,0.143428 0.0016,-0.173834 0.0016,-0.173843 -0.09204,-0.05684 -0.09203,-0.05684 -0.06217,0.162021 -0.06217,0.162021 0.01192,0.120103 0.01192,0.120092 0.04989,-0.19482 0.04989,-0.194831 z m 14.967106,-26.348276 0.104096,-0.134117 0.06414,-0.179901 0.06414,-0.179905 H 48.630046 48.38877 l -0.103723,0.408627 -0.103723,0.408621 0.176773,-0.0946 0.176773,-0.0946 z m 3.836889,0.129584 v -0.09611 L 52.375583,10.793272 52.275326,10.529578 H 52.070399 51.86548 l 0.06381,0.179905 0.06381,0.1799 0.15451,0.179907 0.154515,0.179906 h 0.08686 0.08687 z M 49.083363,10.03006 V 9.851084 L 48.963582,9.7312981 48.843795,9.6115109 48.709841,9.787837 l -0.133948,0.1763269 -0.0031,0.1209671 -0.0031,0.120967 0.179906,0.04082 0.179906,0.04082 0.07709,-0.03938 0.07711,-0.03938 z m 3.084076,0.111183 v -0.07992 l -0.167366,-0.2389511 -0.16737,-0.2389448 -0.08807,0.1389722 -0.08807,0.138972 -0.0019,0.1798997 -0.0019,0.179906 h 0.257006 0.257008 z M 49.828685,9.6088926 50.214189,9.4602483 V 9.0627687 8.6652824 l -0.218296,0.069276 -0.218296,0.069287 -0.347115,0.204801 -0.347119,0.2048064 v 0.099404 0.099404 l 0.109765,0.2050957 0.109764,0.205089 0.07014,-0.032466 0.07014,-0.032466 z M 51.53738,9.5409906 51.659937,9.2720018 51.476777,9.1243182 51.293618,8.9766423 50.962808,8.8278982 50.632004,8.6791597 h -0.05471 -0.05471 l 5.1e-4,0.3855048 5.03e-4,0.3855093 0.384982,0.1700344 0.384989,0.1700266 0.0606,0.00986 0.0606,0.00986 z"
       id="path2" /><path
       style="fill:#1a1a1a;stroke:#000000;stroke-width:0.264999;stroke-dasharray:0.264999, 2.12"
       d="M 48.740636,86.723206 C 47.972204,86.979349 36.04319,93.200002 36.04319,93.200002 l -0.658659,2.012564 14.12454,-3.988536 z"
       id="path3" /><path
       style="fill:#1a1a1a;stroke:#000000;stroke-width:0.264999;stroke-dasharray:0.264999, 2.12"
       d="m 51.63141,87.052533 -0.329329,4.061719 0.14637,0.329329 h 0.585472 l 12.990185,3.768985 -0.841619,-3.659209 z"
       id="path4" /><path
       style="fill:#1a1a1a;stroke:#000000;stroke-width:0.264999;stroke-dasharray:0.264999, 2.12"
       d="m 45.154614,50.716608 c 0.109776,-0.512289 0.256143,-5.196073 0.256143,-5.196073 L 34.725874,48.557677 14.636828,59.023008 c 0,0 -4.7935614,5.086298 -4.7569692,5.342443 0.036592,0.256143 0.1097761,1.280721 0.1097761,1.280721 l 0.4756971,-0.146367 0.18296,-0.146368 10.831253,-5.122891 10.721477,-5.196073 3.256692,-1.719829 z"
       id="path5" /><path
       style="fill:#1a1a1a;stroke:#000000;stroke-width:0.264999;stroke-dasharray:0.264999, 2.12"
       d="m 55.3638,47.057402 c 0,0 -0.878208,4.354454 -0.219551,4.28127 0.658656,-0.07318 11.197171,2.671223 11.197171,2.671223 l 2.561448,1.170945 3.329876,1.3905 7.867295,4.134903 10.318965,4.939929 v -3.183509 l -17.12509,-9.184611 -10.428738,-6.22065 z"
       id="path6" /><path
       style="fill:#1a1a1a;stroke:#000000;stroke-width:0.264999;stroke-dasharray:0.264999, 2.12"
       d="m 50.751671,7.2822487 c -0.672209,0.224069 -2.464761,1.4564495 -2.464761,1.4564495 0,0 -0.784243,1.5684848 -0.672208,2.2406918 0.112035,0.672208 -0.112035,3.024934 0.560173,2.464761 0.672208,-0.560173 4.36935,-1.680519 4.36935,-1.680519 0,0 0.112033,0.336104 0,-1.9045877 C 52.43219,7.6183523 50.751671,7.2822487 50.751671,7.2822487 Z"
       id="path7" /><path
       style="fill:#1a1a1a;stroke:#000000;stroke-width:0.264999;stroke-dasharray:0.264999, 2.12"
       d="m 33.834448,41.900937 c 0.672206,-2.016622 0.672206,-5.041555 0.672206,-5.041555 L 33.16224,35.85107 c 0,0 -1.120347,1.120347 -0.896276,1.792552 0.224067,0.672209 1.568484,4.257315 1.568484,4.257315 z"
       id="path8" /><path
       style="fill:#1a1a1a;stroke:#000000;stroke-width:0.264999;stroke-dasharray:0.264999, 2.12"
       d="m 21.734711,54.896951 c 0,-1.568485 -0.112034,-8.738698 -0.112034,-8.738698 0,0 -2.352727,-1.68052 -2.352727,-0.112036 0,1.568485 0.336104,8.178525 0.336104,8.178525 z"
       id="path9" /><path
       style="fill:#1a1a1a;stroke:#000000;stroke-width:0.264999;stroke-dasharray:0.264999, 2.12"
       d="m 65.652271,36.523279 -0.896276,6.722075 c 0,0 2.352728,-0.672208 2.800866,-1.120346 0.448138,-0.448138 0.560173,-4.593418 0.560173,-4.593418 z"
       id="path10" /><path
       style="fill:#1a1a1a;stroke:#000000;stroke-width:0.264999;stroke-dasharray:0.264999, 2.12"
       d="m 78.648284,46.270288 0.672208,7.170213 1.120347,-0.22407 0.560173,-6.722076 z"
       id="path11" /></g></svg>
